<?xml version="1.0" encoding="utf-8"?>
<svg xmlns="http://www.w3.org/2000/svg" viewBox="0 0 537.669 60.79">
  <g id="bahghbha" transform="matrix(1, 0, 0, 1, 106.68233, 17.591271)">
    <g id="SvgjsG1015" featurekey="uKAeQw-0" transform="matrix(2.497377, 0, 0, 2.497377, -105.425021, -29.29675)" fill="#0D7377" style="">
      <path d="M7.7246 11.9629 l-0.36132 -0.20509 c-0.29297 -0.15625 -0.52409 -0.29297 -0.69336 -0.41016 c-0.50781 -0.35808 -0.82356 -0.77475 -0.94727 -1.25 c-0.14323 -0.55989 -0.065107 -1.0481 0.23438 -1.4648 c0.33203 -0.44922 0.81055 -0.60872 1.4355 -0.47852 c0.38411 0.071611 0.65755 0.17903 0.82031 0.32227 c0.15625 0.13672 0.29948 0.38086 0.42969 0.73242 c-0.13021 -0.23438 -0.3418 -0.39063 -0.63477 -0.46875 c-0.28646 -0.084639 -0.54361 -0.061855 -0.77147 0.06835 c-0.39063 0.22786 -0.56966 0.56966 -0.53711 1.0254 c0.032549 0.42969 0.2181 0.80078 0.55664 1.1133 c0.39063 0.36458 0.88542 0.52408 1.4844 0.47851 c0.61198 -0.05208 1.0808 -0.29622 1.4063 -0.73242 c0.24089 -0.31901 0.39389 -0.7487 0.45899 -1.2891 c0.045576 -0.41016 0.039063 -0.86263 -0.019531 -1.3574 c-0.14974 -1.2109 -0.8431 -2.0735 -2.0801 -2.5879 c-1.4388 -0.44271 -2.9427 -0.53385 -4.5117 -0.27343 c-0.97005 0.20183 -1.7839 0.62826 -2.4414 1.2793 c-0.70313 0.68359 -1.1133 1.5104 -1.2305 2.4805 c-0.091143 0.67708 -0.022783 1.3184 0.20508 1.9238 c0.24739 0.65104 0.65755 1.2142 1.2305 1.6895 c0.24089 0.20833 0.64128 0.45572 1.2012 0.74218 l0.35156 0.17578 l0.35156 0.17578 c0.26042 0.14323 0.48503 0.27344 0.67383 0.39063 c1.0612 0.65104 1.5625 1.4453 1.5039 2.3828 c-0.026045 0.41016 -0.094404 0.74544 -0.20508 1.0059 c-0.14323 0.33854 -0.36784 0.55664 -0.67383 0.6543 c-0.67708 0.22136 -1.1849 -0.048828 -1.5234 -0.81055 l0 0.0097656 l0.0097656 0.0097656 c0.0065136 0.0065136 0.0097656 0.0032615 0.0097656 -0.0097561 c0.3125 0.41667 0.66406 0.52409 1.0547 0.32227 c0.36458 -0.18229 0.57291 -0.51758 0.62499 -1.0059 c0.078125 -0.625 -0.10091 -1.1198 -0.53711 -1.4844 c-0.36458 -0.30599 -0.85938 -0.49153 -1.4844 -0.55664 c-0.87891 -0.084639 -1.6569 0.20508 -2.334 0.86914 c-0.70313 0.70313 -0.93099 1.5169 -0.68359 2.4414 c0.24739 0.91797 0.80729 1.6309 1.6797 2.1387 c0.79427 0.45573 1.7253 0.67709 2.793 0.66407 c1.8164 -0.013018 3.1706 -0.25391 4.0625 -0.72266 c0.95703 -0.5013 1.6406 -1.1719 2.0508 -2.0117 c0.54688 -1.1263 0.5013 -2.2591 -0.13672 -3.3984 c-0.53386 -0.9375 -1.3606 -1.7317 -2.4805 -2.3828 z M23.0224671875 20 c0 -0.54036 -0.048847 -1.1882 -0.1465 -1.9434 c-0.20183 -1.5169 -0.55664 -2.8288 -1.0645 -3.9355 c-0.097656 0.23438 -0.19856 0.6543 -0.30273 1.2598 c-0.097656 0.53386 -0.17578 1.1394 -0.23438 1.8164 c-0.071611 0.83984 -0.11393 1.7741 -0.12694 2.8027 l-5.7129 0 c0.29948 -2.5195 0.13672 -5.6575 -0.48828 -9.4141 c-0.20183 -1.1719 -0.4362 -2.3372 -0.70313 -3.4961 c-0.045576 -0.19531 -0.091152 -0.38737 -0.13673 -0.57617 c-0.039063 -0.15625 -0.074873 -0.30273 -0.10742 -0.43945 c-0.013018 -0.058594 -0.026035 -0.11394 -0.039053 -0.16602 c-0.013018 -0.039063 -0.022783 -0.078125 -0.029297 -0.11719 l-0.0097656 -0.039063 l-0.0097656 -0.029297 l-0.0097656 -0.029297 l4.7168 0 c-0.17578 1.5169 -0.1237 3.0566 0.15625 4.6191 c0.091143 0.51433 0.19531 0.97656 0.3125 1.3867 c0.045576 0.14974 0.087891 0.27018 0.12695 0.36132 c0.032549 0.078125 0.05208 0.11394 0.058594 0.10742 c-0.0065136 0.0065136 0.0032521 -0.029297 0.029297 -0.10742 l0.019531 -0.058594 l0.029297 -0.087891 c0.026045 -0.071611 0.048828 -0.13997 0.068359 -0.20508 c0.065107 -0.19531 0.12695 -0.39063 0.18555 -0.58594 c0.078125 -0.26042 0.153 -0.52409 0.22461 -0.79102 c0.17578 -0.69661 0.31901 -1.3899 0.42969 -2.0801 c0.14323 -0.87239 0.23112 -1.7253 0.26367 -2.5586 l3.125 0 c0 2.3308 0.41992 4.5149 1.2598 6.5527 c0.37109 -1.7253 0.55664 -3.3138 0.55664 -4.7656 c-0.0065136 -0.46875 -0.029297 -0.89844 -0.068359 -1.2891 c-0.013018 -0.13021 -0.029297 -0.24739 -0.048828 -0.35156 l-0.019531 -0.097656 c0 -0.019531 -0.0032521 -0.035811 -0.0097656 -0.048828 l4.9121 0 c-0.69661 2.0052 -1.2337 4.489 -1.6113 7.4512 c-0.14974 1.1653 -0.27018 2.3958 -0.36132 3.6914 c-0.078125 1.0156 -0.13997 2.0703 -0.18555 3.1641 l-5.0488 0 z M39.003946875 16.2207 c-0.39063 -0.26042 -0.63479 -0.59894 -0.73244 -1.0156 c-0.091143 -0.39714 -0.042314 -0.778 0.14648 -1.1426 c0.19531 -0.37761 0.49153 -0.64779 0.88867 -0.81056 c0.091143 0.37109 0.28971 0.67708 0.59569 0.91797 c0.30599 0.24739 0.6543 0.37109 1.0449 0.37109 c0.46875 0 0.86914 -0.16602 1.2012 -0.49805 c0.32552 -0.33203 0.48828 -0.72917 0.48828 -1.1914 c0 -0.35808 -0.10091 -0.68359 -0.30273 -0.97656 c-0.20833 -0.33854 -0.60221 -0.5957 -1.1816 -0.77148 c-0.63802 -0.19531 -1.2858 -0.19856 -1.9434 -0.0097656 c-0.5013 0.14323 -0.99287 0.39389 -1.4746 0.75196 c0.11067 -1.0091 0.45247 -1.8489 1.0254 -2.5195 c0.57942 -0.67708 1.2532 -1.0156 2.0215 -1.0156 c0.54688 0 1.0547 0.18229 1.5234 0.54688 c0.45573 0.35156 0.82357 0.82683 1.1035 1.4258 c0.097656 -1.1067 0.23112 -2.2168 0.40039 -3.3301 c0.05208 -0.35156 0.10742 -0.68034 0.16602 -0.98633 c0.013018 -0.097656 0.029297 -0.18555 0.048828 -0.26367 c0 -0.026045 0.0032521 -0.05209 0.0097656 -0.078135 l0 -0.019531 l0.0097656 0 l-10.732 0 c0.70964 2.7083 0.95378 5.7813 0.73242 9.2188 c-0.071611 1.1653 -0.19531 2.3015 -0.37109 3.4082 c-0.058594 0.40364 -0.1237 0.78125 -0.19531 1.1328 c-0.05208 0.27344 -0.10091 0.48503 -0.14648 0.63477 l10.674 0 c-0.44922 -1.3021 -0.70313 -2.9622 -0.76172 -4.9805 c-0.29297 0.50781 -0.64778 0.90495 -1.0645 1.1914 c-0.4362 0.29948 -0.9017 0.44922 -1.3965 0.44922 c-0.73567 0 -1.3281 -0.14648 -1.7773 -0.43945 z M52.8174234375 16.2207 c-0.39063 -0.26042 -0.63479 -0.59894 -0.73244 -1.0156 c-0.091143 -0.39714 -0.042314 -0.778 0.14648 -1.1426 c0.19531 -0.37761 0.49153 -0.64779 0.88867 -0.81056 c0.091143 0.37109 0.28971 0.67708 0.59569 0.91797 c0.30599 0.24739 0.6543 0.37109 1.0449 0.37109 c0.46875 0 0.86914 -0.16602 1.2012 -0.49805 c0.32552 -0.33203 0.48828 -0.72917 0.48828 -1.1914 c0 -0.35808 -0.10091 -0.68359 -0.30273 -0.97656 c-0.20833 -0.33854 -0.60221 -0.5957 -1.1816 -0.77148 c-0.63802 -0.19531 -1.2858 -0.19856 -1.9434 -0.0097656 c-0.5013 0.14323 -0.99287 0.39389 -1.4746 0.75196 c0.11067 -1.0091 0.45247 -1.8489 1.0254 -2.5195 c0.57942 -0.67708 1.2532 -1.0156 2.0215 -1.0156 c0.54688 0 1.0547 0.18229 1.5234 0.54688 c0.45573 0.35156 0.82357 0.82683 1.1035 1.4258 c0.097656 -1.1067 0.23112 -2.2168 0.40039 -3.3301 c0.05208 -0.35156 0.10742 -0.68034 0.16602 -0.98633 c0.013018 -0.097656 0.029297 -0.18555 0.048828 -0.26367 c0 -0.026045 0.0032521 -0.05209 0.0097656 -0.078135 l0 -0.019531 l0.0097656 0 l-10.732 0 c0.70964 2.7083 0.95378 5.7813 0.73242 9.2188 c-0.071611 1.1653 -0.19531 2.3015 -0.37109 3.4082 c-0.058594 0.40364 -0.1237 0.78125 -0.19531 1.1328 c-0.05208 0.27344 -0.10091 0.48503 -0.14648 0.63477 l10.674 0 c-0.44922 -1.3021 -0.70313 -2.9622 -0.76172 -4.9805 c-0.29297 0.50781 -0.64778 0.90495 -1.0645 1.1914 c-0.4362 0.29948 -0.9017 0.44922 -1.3965 0.44922 c-0.73567 0 -1.3281 -0.14648 -1.7773 -0.43945 z M60.9375 5.605 l-0.000019073 4.2676 c0.25391 -0.44271 0.58919 -0.80729 1.0059 -1.0938 c0.42969 -0.28646 0.85612 -0.42969 1.2793 -0.42969 c0.83984 0 1.4355 0.41016 1.7871 1.2305 c0.22786 0.53386 0.3418 1.2337 0.3418 2.0996 c0 0.30599 -0.013018 0.67383 -0.039063 1.1035 l-0.039063 0.53711 c-0.013018 0.21484 -0.022783 0.38086 -0.029297 0.49805 c-0.05208 0.91146 -0.17578 1.9466 -0.37109 3.1055 c-0.071611 0.44922 -0.16602 0.96354 -0.2832 1.543 l-0.29297 1.5332 l5.4199 0 c-0.045576 0 -0.14648 -0.48828 -0.30273 -1.4648 c-0.05208 -0.30599 -0.10742 -0.6608 -0.16602 -1.0645 l-0.039063 -0.21484 l-0.0097656 -0.097656 l-0.0097656 -0.078125 c-0.019531 -0.11719 -0.032549 -0.18555 -0.039063 -0.20508 c-0.20183 -1.2891 -0.35808 -2.8255 -0.46875 -4.6094 l-0.029297 -0.40039 l-0.019531 -0.40039 c-0.013018 -0.3125 -0.0065041 -0.58919 0.019541 -0.83008 c0.05208 -0.625 0.22135 -1.1263 0.5078 -1.5039 c0.55339 -0.70964 1.3411 -0.80729 2.3633 -0.29297 c0.51433 0.26042 0.97006 0.59245 1.3672 0.99609 l0 -4.2285 l-11.953 0 z" fill="#0D7377"/>
    </g>
    <g id="SvgjsG1016" featurekey="uKAeQw-1" transform="matrix(2.554752, 0, 0, 2.538821, 81.189498, -29.511188)" fill="#0D7377" style="">
      <path d="M 4.972 11.094 C 4.907 10.345 4.871 9.564 4.864 8.75 C 5.646 8.711 6.307 8.769 6.847 8.926 C 7.517 9.121 7.827 9.437 7.775 9.873 C 7.644 10.908 6.71 11.315 4.972 11.094 Z M 24.2 21.533 C 23.816 21.501 23.442 21.556 23.077 21.699 C 22.726 21.829 22.459 22.012 22.277 22.246 C 21.84 22.806 21.707 23.353 21.876 23.887 C 22.046 24.44 22.488 24.727 23.204 24.746 C 23.191 24.772 23.204 24.801 23.243 24.834 C 23.282 24.86 23.312 24.876 23.331 24.883 C 23.325 24.889 23.302 24.899 23.263 24.912 L 23.204 24.932 C 20.698 26.396 18.061 25.594 15.294 22.524 C 12.527 19.455 10.685 16.283 9.767 13.008 C 10.138 12.884 10.392 12.793 10.529 12.734 C 11.128 12.474 11.577 12.057 11.876 11.484 C 12.137 11.003 12.267 10.469 12.267 9.883 C 12.267 9.746 12.26 9.606 12.247 9.463 C 12.228 9.261 12.195 9.062 12.15 8.867 C 12.033 8.34 11.831 7.868 11.544 7.451 C 10.717 6.24 9.295 5.635 7.277 5.635 L 0.841 5.635 C 1.408 7.705 1.57 10.713 1.329 14.658 C 1.258 15.902 1.147 17.161 0.997 18.437 C 0.952 18.835 0.906 19.212 0.861 19.57 C 0.848 19.687 0.835 19.792 0.822 19.883 C 0.815 19.915 0.809 19.941 0.802 19.961 L 0.802 19.99 L 6.144 19.99 C 5.662 18.017 5.356 15.924 5.226 13.711 C 5.232 13.769 5.262 13.818 5.314 13.857 C 7.02 17.926 8.995 21.217 11.242 23.73 C 14.321 27.161 17.583 28.672 21.027 28.262 C 22.381 28.105 23.608 27.585 24.708 26.699 C 26.017 25.651 26.479 24.486 26.095 23.203 C 25.789 22.174 25.158 21.618 24.201 21.533 L 24.2 21.533 Z M 19 15.43 C 18.59 14.74 18.385 13.867 18.385 12.813 C 18.385 11.96 18.564 11.169 18.922 10.439 C 19.352 9.554 19.824 9.072 20.338 8.994 C 20.631 8.949 20.921 9.03 21.207 9.238 C 21.474 9.44 21.702 9.723 21.891 10.088 C 22.112 10.511 22.285 10.97 22.408 11.465 C 22.519 11.914 22.574 12.363 22.574 12.813 C 22.574 13.867 22.369 14.74 21.959 15.43 C 21.562 16.1 21.071 16.436 20.485 16.436 C 19.892 16.436 19.397 16.1 19 15.43 Z M 24.489 7.49 C 23.935 6.748 23.278 6.178 22.516 5.781 C 21.696 5.351 20.856 5.185 19.996 5.283 C 18.519 5.446 17.155 6.422 15.905 8.213 C 14.876 9.677 14.362 11.269 14.362 12.988 C 14.362 15.11 14.951 16.865 16.129 18.252 C 17.288 19.606 18.717 20.283 20.416 20.283 C 22.115 20.283 23.541 19.606 24.694 18.252 C 25.872 16.865 26.461 15.11 26.461 12.988 C 26.461 12.077 26.302 11.168 25.983 10.263 C 25.631 9.267 25.133 8.343 24.489 7.49 Z M 33.79 15.43 C 33.38 14.74 33.175 13.867 33.175 12.813 C 33.175 11.96 33.354 11.169 33.712 10.439 C 34.142 9.554 34.614 9.072 35.128 8.994 C 35.421 8.949 35.711 9.03 35.997 9.238 C 36.264 9.44 36.492 9.723 36.681 10.088 C 36.902 10.511 37.075 10.97 37.198 11.465 C 37.309 11.914 37.364 12.363 37.364 12.813 C 37.364 13.867 37.159 14.74 36.749 15.43 C 36.352 16.1 35.861 16.436 35.275 16.436 C 34.682 16.436 34.187 16.1 33.79 15.43 Z M 39.279 7.49 C 38.725 6.748 38.068 6.178 37.306 5.781 C 36.486 5.351 35.646 5.185 34.786 5.283 C 33.309 5.446 31.945 6.422 30.695 8.213 C 29.666 9.677 29.152 11.269 29.152 12.988 C 29.152 15.11 29.741 16.865 30.919 18.252 C 32.078 19.606 33.507 20.283 35.206 20.283 C 36.905 20.283 38.331 19.606 39.484 18.252 C 40.662 16.865 41.251 15.11 41.251 12.988 C 41.251 12.077 41.092 11.168 40.773 10.263 C 40.421 9.267 39.923 8.343 39.279 7.49 Z M 43.258 5.605 L 43.258 9.873 C 43.512 9.43 43.847 9.065 44.264 8.779 C 44.694 8.492 45.12 8.349 45.543 8.349 C 46.383 8.349 46.979 8.759 47.33 9.58 C 47.558 10.113 47.672 10.813 47.672 11.679 C 47.672 11.985 47.659 12.353 47.633 12.783 L 47.594 13.32 C 47.581 13.535 47.571 13.701 47.565 13.818 C 47.513 14.729 47.389 15.764 47.194 16.923 C 47.122 17.373 47.028 17.887 46.91 18.466 L 46.617 20 L 52.037 20 C 51.992 20 51.891 19.511 51.735 18.535 C 51.683 18.229 51.627 17.874 51.569 17.47 L 51.529 17.255 L 51.52 17.158 L 51.51 17.08 C 51.49 16.962 51.477 16.894 51.471 16.875 C 51.269 15.585 51.113 14.049 51.002 12.265 L 50.973 11.865 L 50.953 11.464 C 50.94 11.152 50.947 10.875 50.973 10.634 C 51.025 10.009 51.194 9.508 51.481 9.13 C 52.034 8.421 52.822 8.323 53.844 8.837 C 54.358 9.098 54.814 9.43 55.211 9.834 L 55.211 5.605 L 43.258 5.605 Z M 65.333 11.963 L 64.972 11.758 C 64.679 11.602 64.448 11.465 64.279 11.348 C 63.771 10.99 63.455 10.573 63.331 10.098 C 63.188 9.538 63.266 9.05 63.566 8.633 C 63.898 8.184 64.376 8.024 65.001 8.154 C 65.385 8.226 65.659 8.333 65.821 8.477 C 65.978 8.613 66.121 8.857 66.251 9.209 C 66.121 8.975 65.909 8.818 65.616 8.74 C 65.33 8.656 65.073 8.678 64.845 8.809 C 64.454 9.036 64.275 9.378 64.308 9.834 C 64.34 10.264 64.526 10.635 64.864 10.947 C 65.255 11.312 65.75 11.471 66.349 11.426 C 66.961 11.374 67.43 11.13 67.755 10.693 C 67.996 10.374 68.149 9.945 68.214 9.404 C 68.26 8.994 68.253 8.542 68.195 8.047 C 68.045 6.836 67.351 5.973 66.114 5.459 C 64.676 5.016 63.172 4.925 61.603 5.186 C 60.633 5.387 59.819 5.814 59.161 6.465 C 58.458 7.148 58.048 7.975 57.931 8.945 C 57.84 9.622 57.908 10.264 58.136 10.869 C 58.383 11.52 58.794 12.083 59.366 12.559 C 59.607 12.767 60.008 13.014 60.568 13.301 L 60.919 13.477 L 61.271 13.652 C 61.531 13.796 61.756 13.926 61.945 14.043 C 63.006 14.694 63.507 15.488 63.449 16.426 C 63.422 16.836 63.354 17.171 63.243 17.432 C 63.1 17.77 62.876 17.988 62.57 18.086 C 61.893 18.307 61.385 18.037 61.046 17.275 L 61.046 17.285 L 61.056 17.295 C 61.062 17.302 61.066 17.298 61.066 17.285 C 61.378 17.702 61.73 17.809 62.12 17.608 C 62.485 17.425 62.693 17.09 62.745 16.602 C 62.824 15.977 62.645 15.482 62.208 15.117 C 61.844 14.811 61.349 14.626 60.724 14.561 C 59.845 14.476 59.067 14.766 58.39 15.43 C 57.687 16.133 57.459 16.947 57.706 17.871 C 57.954 18.789 58.514 19.502 59.386 20.01 C 60.18 20.466 61.111 20.687 62.179 20.674 C 63.995 20.661 65.35 20.42 66.242 19.951 C 67.199 19.45 67.882 18.779 68.292 17.94 C 68.839 16.813 68.794 15.68 68.156 14.541 C 67.622 13.604 66.795 12.809 65.675 12.158 L 65.333 11.963 Z M 83.732 14.17 C 84.038 14.417 84.386 14.541 84.777 14.541 C 85.245 14.541 85.646 14.375 85.978 14.043 C 86.303 13.711 86.466 13.314 86.466 12.852 C 86.466 12.493 86.365 12.168 86.163 11.875 C 85.955 11.543 85.561 11.286 84.982 11.104 C 84.344 10.908 83.696 10.905 83.038 11.094 C 82.537 11.237 82.045 11.488 81.564 11.846 C 81.674 10.837 82.016 9.997 82.589 9.326 C 83.169 8.649 83.842 8.311 84.611 8.311 C 85.157 8.311 85.665 8.493 86.134 8.857 C 86.59 9.209 86.958 9.684 87.237 10.283 C 87.335 9.177 87.469 8.066 87.638 6.953 C 87.69 6.602 87.745 6.273 87.804 5.967 C 87.817 5.869 87.833 5.781 87.853 5.703 C 87.853 5.677 87.856 5.651 87.863 5.625 L 87.863 5.606 L 87.872 5.606 L 77.14 5.606 C 77.85 8.314 78.094 11.387 77.873 14.824 C 77.801 15.99 77.677 17.126 77.502 18.233 C 77.443 18.636 77.378 19.014 77.306 19.365 C 77.254 19.639 77.205 19.85 77.16 20 L 83.244 20 C 83.107 19.844 82.931 19.606 82.716 19.287 C 82.111 18.402 81.789 17.324 81.75 16.055 C 81.698 14.583 82.16 13.649 83.136 13.252 C 83.228 13.623 83.426 13.929 83.732 14.17 Z M 95.162 9.414 C 95.664 10.866 96.044 12.23 96.305 13.506 C 95.576 13.76 94.801 13.825 93.981 13.701 C 94.248 12.366 94.642 10.937 95.162 9.414 Z M 102.008 20 C 101.995 19.941 101.456 18.366 100.391 15.273 C 99.327 12.181 98.958 8.958 99.283 5.605 L 91.051 5.605 C 91.181 9.486 90.761 12.84 89.791 15.668 C 88.821 18.497 88.329 19.941 88.316 19.999 L 94.029 19.999 C 93.717 19.108 93.577 18.043 93.609 16.806 C 94.807 17.151 95.842 17.125 96.715 16.728 C 96.754 17.997 96.617 19.088 96.305 19.999 L 102.008 19.999 L 102.008 20 Z M 109.601 11.221 C 109.529 10.413 109.49 9.57 109.484 8.691 C 110.265 8.652 110.926 8.717 111.466 8.887 C 112.137 9.102 112.446 9.443 112.394 9.912 C 112.27 11.025 111.339 11.462 109.601 11.221 Z M 117.892 15.977 C 117.755 16.185 117.583 16.37 117.375 16.533 C 116.958 16.865 116.564 16.927 116.193 16.719 C 115.991 16.615 115.809 16.439 115.646 16.191 C 115.522 16.016 115.395 15.785 115.265 15.498 C 115.265 15.492 115.22 15.384 115.128 15.176 L 114.875 14.59 L 114.601 14.014 C 114.438 13.682 114.253 13.379 114.044 13.106 C 114.637 12.917 115.041 12.773 115.255 12.676 C 115.854 12.415 116.303 12.002 116.603 11.436 C 116.864 10.954 116.994 10.42 116.994 9.834 C 116.994 9.697 116.987 9.557 116.974 9.414 C 116.955 9.212 116.922 9.014 116.877 8.818 C 116.759 8.285 116.558 7.809 116.271 7.393 C 115.444 6.188 114.022 5.586 112.003 5.586 L 105.128 5.586 C 105.838 10.404 105.832 15.15 105.109 19.824 C 105.102 19.857 105.096 19.886 105.089 19.912 L 105.089 19.941 L 110.871 19.941 C 110.415 18.06 110.115 16.058 109.972 13.935 L 110.158 13.994 C 110.763 14.241 111.203 14.674 111.476 15.293 C 111.58 15.534 111.672 15.82 111.75 16.152 L 111.838 16.601 L 111.916 17.041 L 111.984 17.383 L 112.052 17.724 C 112.104 17.978 112.16 18.203 112.218 18.398 C 112.375 18.886 112.583 19.284 112.843 19.59 C 113.547 20.429 114.422 20.778 115.47 20.634 C 115.972 20.563 116.424 20.374 116.828 20.068 C 117.231 19.756 117.544 19.358 117.765 18.877 C 117.837 18.707 117.899 18.528 117.951 18.34 C 118.114 17.721 118.123 17.05 117.98 16.328 L 117.892 15.977 Z M 127.213 5.625 C 127.382 7.819 127.871 9.802 128.678 11.572 C 128.841 11.338 129.007 10.918 129.176 10.313 C 129.319 9.779 129.436 9.177 129.528 8.506 C 129.638 7.66 129.703 6.699 129.723 5.625 L 135.504 5.625 C 134.99 9.596 135.006 13.177 135.553 16.367 C 135.722 17.363 135.937 18.265 136.197 19.072 C 136.243 19.215 136.289 19.349 136.334 19.473 C 136.367 19.577 136.403 19.674 136.442 19.765 L 136.481 19.863 C 136.487 19.889 136.497 19.915 136.51 19.941 L 136.52 19.961 L 136.53 19.98 L 136.53 20 L 131.617 20 C 131.793 18.483 131.783 16.943 131.588 15.381 C 131.53 14.866 131.455 14.407 131.364 14.004 C 131.324 13.848 131.292 13.724 131.266 13.633 C 131.24 13.555 131.224 13.522 131.217 13.535 C 131.224 13.522 131.214 13.555 131.188 13.633 L 131.168 13.701 L 131.139 13.779 C 131.113 13.851 131.09 13.919 131.071 13.984 C 131.005 14.18 130.944 14.375 130.885 14.57 C 130.807 14.831 130.735 15.094 130.67 15.361 C 130.488 16.058 130.341 16.751 130.231 17.441 C 130.087 18.32 130 19.173 129.967 20 L 126.842 20 C 126.842 17.676 126.425 15.491 125.592 13.447 C 125.214 15.166 125.11 16.758 125.28 18.223 C 125.332 18.685 125.413 19.111 125.524 19.502 C 125.537 19.567 125.553 19.632 125.572 19.697 C 125.592 19.749 125.608 19.801 125.621 19.853 L 125.641 19.912 L 125.66 19.951 C 125.667 19.977 125.67 19.993 125.67 20 L 120.563 20 C 121.617 16.79 122.138 13.962 122.125 11.514 C 122.125 10.602 122.047 9.6 121.891 8.506 C 121.852 8.187 121.783 7.721 121.686 7.109 L 121.578 6.406 L 121.471 5.625 L 127.213 5.625 Z" fill="#0D7377"/>
    </g>
  </g>
</svg>